<?xml version="1.0" encoding="iso-8859-1"?>
<!-- Generator: Adobe Illustrator 19.0.0, SVG Export Plug-In . SVG Version: 6.00 Build 0)  -->
<svg version="1.1" id="Layer_1" xmlns="http://www.w3.org/2000/svg" xmlns:xlink="http://www.w3.org/1999/xlink" x="0px" y="0px"
	 viewBox="0 0 261.046 261.046" style="enable-background:new 0 0 261.046 261.046;" xml:space="preserve">
<g>
	<path style="fill:#F59D00;" d="M249.474,130.523c-30.871,87.319-69.699,93.765-148.21,93.765c-51.785,0-93.765-41.98-93.765-93.765
		s41.98-93.765,93.765-93.765S277.363,51.64,249.474,130.523z"/>
	<g>
		<path style="fill:#414042;" d="M101.265,29.258C45.427,29.258,0,74.685,0,130.523s45.427,101.265,101.265,101.265
			c79.842,0,122.843-7.013,155.281-98.765C283.652,56.349,182.796,29.258,101.265,29.258z M242.403,128.023
			c-28.677,81.112-61.481,88.765-141.139,88.765C53.698,216.787,15,178.089,15,130.523s38.698-86.265,86.265-86.265
			c40.45,0,114.248,9.097,137.522,42.013C247.031,97.93,248.214,111.587,242.403,128.023z"/>
		<path style="fill:#414042;" d="M215.229,84.373c-16.821-11.382-42.401-17.689-62.536-20.927c-4.093-0.666-7.939,2.124-8.596,6.213
			c-0.658,4.09,2.123,7.939,6.213,8.596c17.6,2.834,41.766,8.563,56.513,18.542c3.434,2.323,8.094,1.42,10.415-2.009
			C219.559,91.358,218.659,86.695,215.229,84.373z"/>
		<circle style="fill:#414042;" cx="120.5" cy="113.523" r="5"/>
		<circle style="fill:#414042;" cx="44.167" cy="108.523" r="5"/>
		<circle style="fill:#414042;" cx="195.167" cy="160.856" r="5"/>
		<circle style="fill:#414042;" cx="94.167" cy="186.19" r="5"/>
	</g>
</g>
<g>
</g>
<g>
</g>
<g>
</g>
<g>
</g>
<g>
</g>
<g>
</g>
<g>
</g>
<g>
</g>
<g>
</g>
<g>
</g>
<g>
</g>
<g>
</g>
<g>
</g>
<g>
</g>
<g>
</g>
</svg>
